<svg id="Layer_1" data-name="Layer 1" xmlns="http://www.w3.org/2000/svg" viewBox="0 0 402.03 66.49" role="img"><title>Bounteous</title><defs><style>.cls-1{fill:#FFFFFF;}</style></defs><path class="cls-1" d="M209.11,43.45a6.11,6.11,0,0,0,6.1,6.11h.93v16h-.59l-1.39,0a21.31,21.31,0,0,1-10-2.47,20.24,20.24,0,0,1-7.56-6.69C194.21,52.83,193,48,193,42.12v-32h15.89l-.11,11.16H216V37h-7l.09,6.44M72.83,19.94A23.1,23.1,0,1,1,49.72,43a23.13,23.13,0,0,1,23.11-23.1m0,15.31A7.79,7.79,0,1,0,80.61,43,7.79,7.79,0,0,0,72.83,35.25ZM0,43V0H15.11V21.29h0A23.1,23.1,0,1,1,0,43m23.1-7.79A7.79,7.79,0,1,0,30.89,43,7.8,7.8,0,0,0,23.1,35.18ZM99.89,45.6a20.89,20.89,0,1,0,41.77,0V22.25H125.83l0,24.27a5.07,5.07,0,1,1-10.14,0V22.25H99.88V45.6M317.05,43A23.1,23.1,0,1,1,294,19.94,23.14,23.14,0,0,1,317.05,43Zm-15.32,0a7.78,7.78,0,1,0-2.28,5.5A7.79,7.79,0,0,0,301.73,43Zm45.78,2.55a5.07,5.07,0,1,1-10.13,0V21.32H321.54V44.25l0,.42a20.89,20.89,0,0,0,41.77,0V21.32H347.5V45.59M166.92,20.37A20.91,20.91,0,0,0,146,41.26V65h15.83V40.34a5.07,5.07,0,0,1,10.14,0V65h15.83l0-23.75a20.91,20.91,0,0,0-20.88-20.89m231.94,21.4c-2.06-2.15-5.2-3.66-9.3-4.48-1.42-.32-2.57-.58-3.44-.79a6.6,6.6,0,0,1-1.77-.63c-.42-.25-.53-.43-.55-.48a1.93,1.93,0,0,1-.13-.82,1.66,1.66,0,0,1,.87-1.47,5,5,0,0,1,2.78-.67,16,16,0,0,1,7.42,2l.71.36,5.61-10.85-.8-.33a35,35,0,0,0-13.41-2.69A26.54,26.54,0,0,0,379.1,22a18.11,18.11,0,0,0-6,3.08A13.61,13.61,0,0,0,369.2,30a15.31,15.31,0,0,0-1.35,6.49,10.74,10.74,0,0,0,2.9,7.91c1.9,1.91,5.09,3.29,9.74,4.23,1.3.26,2.36.51,3.15.74a6.12,6.12,0,0,1,1.64.69,1.37,1.37,0,0,1,.54.58,2.88,2.88,0,0,1,.15,1,1.83,1.83,0,0,1-.93,1.57,4.91,4.91,0,0,1-2.8.73c-3.43,0-7.12-1.34-11-4l-.75-.51-6,11.64.65.38a32.82,32.82,0,0,0,16.69,4.8,28,28,0,0,0,8.1-1.11A19.77,19.77,0,0,0,396.31,62a14.35,14.35,0,0,0,4.2-5.08A15,15,0,0,0,402,50.15a11.64,11.64,0,0,0-3.17-8.38M266.63,48.33H238.16c.27,3.38,2.92,5,6,5a5.83,5.83,0,0,0,5.42-2.91l14.06,5a22.55,22.55,0,1,1,3-7.09ZM250.49,38.25l0-.4C250.17,35,247.63,33,244.12,33s-6.06,2-6.34,4.84l0,.4Z"/></svg>